<mxfile host="app.diagrams.net" modified="2023-10-15T15:18:05.073Z" agent="Mozilla/5.0 (Macintosh; Intel Mac OS X 10_15_7) AppleWebKit/537.36 (KHTML, like Gecko) Chrome/118.0.0.0 Safari/537.36" etag="5wZWwoazdWTy3zeCJJTz" version="22.0.4" type="device">
  <diagram id="VX7lVk8Umw2Dl4QVmjfK" name="Page-1">
    <mxGraphModel dx="1303" dy="453" grid="0" gridSize="10" guides="1" tooltips="1" connect="1" arrows="1" fold="1" page="1" pageScale="1" pageWidth="500" pageHeight="500" math="0" shadow="0">
      <root>
        <mxCell id="0" />
        <mxCell id="1" parent="0" />
        <mxCell id="m7DbLy0PeTwWnauxjm_9-40" value="" style="group" parent="1" vertex="1" connectable="0">
          <mxGeometry x="-100" y="50" width="1190" height="910" as="geometry" />
        </mxCell>
        <mxCell id="m7DbLy0PeTwWnauxjm_9-6" value="" style="endArrow=none;html=1;rounded=0;strokeWidth=3;" parent="m7DbLy0PeTwWnauxjm_9-40" edge="1">
          <mxGeometry width="50" height="50" relative="1" as="geometry">
            <mxPoint x="396.66666666666663" y="455" as="sourcePoint" />
            <mxPoint x="595" y="227.5" as="targetPoint" />
          </mxGeometry>
        </mxCell>
        <mxCell id="m7DbLy0PeTwWnauxjm_9-7" value="" style="endArrow=none;html=1;rounded=0;strokeWidth=3;" parent="m7DbLy0PeTwWnauxjm_9-40" edge="1">
          <mxGeometry width="50" height="50" relative="1" as="geometry">
            <mxPoint x="396.66666666666663" y="455" as="sourcePoint" />
            <mxPoint x="793.3333333333333" y="455" as="targetPoint" />
          </mxGeometry>
        </mxCell>
        <mxCell id="m7DbLy0PeTwWnauxjm_9-8" value="" style="endArrow=none;html=1;rounded=0;strokeWidth=3;" parent="m7DbLy0PeTwWnauxjm_9-40" edge="1">
          <mxGeometry width="50" height="50" relative="1" as="geometry">
            <mxPoint x="793.3333333333333" y="455" as="sourcePoint" />
            <mxPoint x="595" y="227.5" as="targetPoint" />
          </mxGeometry>
        </mxCell>
        <mxCell id="m7DbLy0PeTwWnauxjm_9-9" value="" style="endArrow=none;html=1;rounded=0;strokeWidth=1;fillColor=#f5f5f5;strokeColor=#666666;" parent="m7DbLy0PeTwWnauxjm_9-40" edge="1">
          <mxGeometry width="50" height="50" relative="1" as="geometry">
            <mxPoint x="793.3333333333333" as="sourcePoint" />
            <mxPoint x="595" y="227.5" as="targetPoint" />
          </mxGeometry>
        </mxCell>
        <mxCell id="m7DbLy0PeTwWnauxjm_9-10" value="" style="endArrow=none;html=1;rounded=0;strokeWidth=1;fillColor=#f5f5f5;strokeColor=#666666;" parent="m7DbLy0PeTwWnauxjm_9-40" edge="1">
          <mxGeometry width="50" height="50" relative="1" as="geometry">
            <mxPoint x="396.66666666666663" as="sourcePoint" />
            <mxPoint x="595" y="227.5" as="targetPoint" />
          </mxGeometry>
        </mxCell>
        <mxCell id="m7DbLy0PeTwWnauxjm_9-11" value="" style="endArrow=none;html=1;rounded=0;strokeWidth=1;fillColor=#f5f5f5;strokeColor=#666666;" parent="m7DbLy0PeTwWnauxjm_9-40" edge="1">
          <mxGeometry width="50" height="50" relative="1" as="geometry">
            <mxPoint x="793.3333333333333" as="sourcePoint" />
            <mxPoint x="793.3333333333333" y="455" as="targetPoint" />
          </mxGeometry>
        </mxCell>
        <mxCell id="m7DbLy0PeTwWnauxjm_9-12" value="" style="endArrow=none;html=1;rounded=0;strokeWidth=1;fillColor=#f5f5f5;strokeColor=#666666;" parent="m7DbLy0PeTwWnauxjm_9-40" edge="1">
          <mxGeometry width="50" height="50" relative="1" as="geometry">
            <mxPoint x="396.66666666666663" as="sourcePoint" />
            <mxPoint x="396.66666666666663" y="455" as="targetPoint" />
          </mxGeometry>
        </mxCell>
        <mxCell id="m7DbLy0PeTwWnauxjm_9-13" value="" style="endArrow=none;html=1;rounded=0;strokeWidth=1;fillColor=#f5f5f5;strokeColor=#666666;" parent="m7DbLy0PeTwWnauxjm_9-40" edge="1">
          <mxGeometry width="50" height="50" relative="1" as="geometry">
            <mxPoint x="396.66666666666663" y="455" as="sourcePoint" />
            <mxPoint x="396.66666666666663" y="910" as="targetPoint" />
          </mxGeometry>
        </mxCell>
        <mxCell id="m7DbLy0PeTwWnauxjm_9-14" value="" style="endArrow=none;html=1;rounded=0;strokeWidth=1;fillColor=#f5f5f5;strokeColor=#666666;" parent="m7DbLy0PeTwWnauxjm_9-40" edge="1">
          <mxGeometry width="50" height="50" relative="1" as="geometry">
            <mxPoint x="793.3333333333333" y="455" as="sourcePoint" />
            <mxPoint x="793.3333333333333" y="910" as="targetPoint" />
          </mxGeometry>
        </mxCell>
        <mxCell id="m7DbLy0PeTwWnauxjm_9-15" value="" style="endArrow=none;html=1;rounded=0;strokeWidth=1;fillColor=#f5f5f5;strokeColor=#666666;" parent="m7DbLy0PeTwWnauxjm_9-40" edge="1">
          <mxGeometry width="50" height="50" relative="1" as="geometry">
            <mxPoint x="793.3333333333333" y="454.0520833333333" as="sourcePoint" />
            <mxPoint x="1190" y="455" as="targetPoint" />
          </mxGeometry>
        </mxCell>
        <mxCell id="m7DbLy0PeTwWnauxjm_9-16" value="" style="endArrow=none;html=1;rounded=0;strokeWidth=1;fillColor=#f5f5f5;strokeColor=#666666;" parent="m7DbLy0PeTwWnauxjm_9-40" edge="1">
          <mxGeometry width="50" height="50" relative="1" as="geometry">
            <mxPoint y="455" as="sourcePoint" />
            <mxPoint x="396.66666666666663" y="454.0520833333333" as="targetPoint" />
          </mxGeometry>
        </mxCell>
        <mxCell id="m7DbLy0PeTwWnauxjm_9-17" value="" style="endArrow=none;html=1;rounded=0;strokeWidth=1;fillColor=#f5f5f5;strokeColor=#666666;" parent="m7DbLy0PeTwWnauxjm_9-40" edge="1">
          <mxGeometry width="50" height="50" relative="1" as="geometry">
            <mxPoint x="396.66666666666663" y="455" as="sourcePoint" />
            <mxPoint x="595" y="682.5" as="targetPoint" />
          </mxGeometry>
        </mxCell>
        <mxCell id="m7DbLy0PeTwWnauxjm_9-18" value="" style="endArrow=none;html=1;rounded=0;strokeWidth=1;fillColor=#f5f5f5;strokeColor=#666666;" parent="m7DbLy0PeTwWnauxjm_9-40" edge="1">
          <mxGeometry width="50" height="50" relative="1" as="geometry">
            <mxPoint x="793.3333333333333" y="455" as="sourcePoint" />
            <mxPoint x="991.6666666666666" y="682.5" as="targetPoint" />
          </mxGeometry>
        </mxCell>
        <mxCell id="m7DbLy0PeTwWnauxjm_9-19" value="" style="endArrow=none;html=1;rounded=0;strokeWidth=1;fillColor=#f5f5f5;strokeColor=#666666;" parent="m7DbLy0PeTwWnauxjm_9-40" edge="1">
          <mxGeometry width="50" height="50" relative="1" as="geometry">
            <mxPoint x="991.6666666666666" y="227.5" as="sourcePoint" />
            <mxPoint x="793.3333333333333" y="455" as="targetPoint" />
          </mxGeometry>
        </mxCell>
        <mxCell id="m7DbLy0PeTwWnauxjm_9-20" value="" style="endArrow=none;html=1;rounded=0;strokeWidth=1;fillColor=#f5f5f5;strokeColor=#666666;" parent="m7DbLy0PeTwWnauxjm_9-40" edge="1">
          <mxGeometry width="50" height="50" relative="1" as="geometry">
            <mxPoint x="793.3333333333333" y="455" as="sourcePoint" />
            <mxPoint x="595" y="682.5" as="targetPoint" />
          </mxGeometry>
        </mxCell>
        <mxCell id="m7DbLy0PeTwWnauxjm_9-21" value="" style="endArrow=none;html=1;rounded=0;strokeWidth=1;fillColor=#f5f5f5;strokeColor=#666666;" parent="m7DbLy0PeTwWnauxjm_9-40" edge="1">
          <mxGeometry width="50" height="50" relative="1" as="geometry">
            <mxPoint x="396.66666666666663" y="455" as="sourcePoint" />
            <mxPoint x="132.22222222222223" y="758.3333333333333" as="targetPoint" />
          </mxGeometry>
        </mxCell>
        <mxCell id="m7DbLy0PeTwWnauxjm_9-22" value="" style="endArrow=none;html=1;rounded=0;strokeWidth=1;fillColor=#f5f5f5;strokeColor=#666666;" parent="m7DbLy0PeTwWnauxjm_9-40" edge="1">
          <mxGeometry width="50" height="50" relative="1" as="geometry">
            <mxPoint x="198.33333333333331" y="227.5" as="sourcePoint" />
            <mxPoint x="392.5347222222222" y="450.26041666666663" as="targetPoint" />
          </mxGeometry>
        </mxCell>
        <mxCell id="m7DbLy0PeTwWnauxjm_9-29" value="" style="group" parent="m7DbLy0PeTwWnauxjm_9-40" vertex="1" connectable="0">
          <mxGeometry x="357" y="379.16666666666663" width="82.63999999999997" height="151.66666666666666" as="geometry" />
        </mxCell>
        <mxCell id="m7DbLy0PeTwWnauxjm_9-26" value="" style="rounded=0;whiteSpace=wrap;html=1;" parent="m7DbLy0PeTwWnauxjm_9-29" vertex="1">
          <mxGeometry y="18.958333333333332" width="82.63888888888889" height="113.75" as="geometry" />
        </mxCell>
        <mxCell id="m7DbLy0PeTwWnauxjm_9-28" value="" style="sketch=0;pointerEvents=1;shadow=0;dashed=0;html=1;strokeColor=none;fillColor=#505050;labelPosition=center;verticalLabelPosition=bottom;verticalAlign=top;outlineConnect=0;align=center;shape=mxgraph.office.devices.cell_phone_android_standalone;" parent="m7DbLy0PeTwWnauxjm_9-29" vertex="1">
          <mxGeometry width="82.63888888888889" height="151.66666666666666" as="geometry" />
        </mxCell>
        <mxCell id="Dw3PRpNdUOcZ9dQEBOBM-37" value="Alice" style="text;strokeColor=none;align=center;fillColor=none;html=1;verticalAlign=middle;whiteSpace=wrap;rounded=0;fontSize=16;" vertex="1" parent="m7DbLy0PeTwWnauxjm_9-29">
          <mxGeometry x="2.2799999999999727" y="54.16333333333341" width="80.36" height="43.33" as="geometry" />
        </mxCell>
        <mxCell id="m7DbLy0PeTwWnauxjm_9-30" value="" style="group" parent="m7DbLy0PeTwWnauxjm_9-40" vertex="1" connectable="0">
          <mxGeometry x="752.0138888888888" y="379.16666666666663" width="91.32388888888897" height="151.66666666666666" as="geometry" />
        </mxCell>
        <mxCell id="m7DbLy0PeTwWnauxjm_9-31" value="" style="rounded=0;whiteSpace=wrap;html=1;" parent="m7DbLy0PeTwWnauxjm_9-30" vertex="1">
          <mxGeometry y="18.958333333333332" width="82.63888888888889" height="113.75" as="geometry" />
        </mxCell>
        <mxCell id="m7DbLy0PeTwWnauxjm_9-32" value="" style="sketch=0;pointerEvents=1;shadow=0;dashed=0;html=1;strokeColor=none;fillColor=#505050;labelPosition=center;verticalLabelPosition=bottom;verticalAlign=top;outlineConnect=0;align=center;shape=mxgraph.office.devices.cell_phone_android_standalone;" parent="m7DbLy0PeTwWnauxjm_9-30" vertex="1">
          <mxGeometry width="82.63888888888889" height="151.66666666666666" as="geometry" />
        </mxCell>
        <mxCell id="Dw3PRpNdUOcZ9dQEBOBM-39" value="Charlie" style="text;strokeColor=none;align=center;fillColor=none;html=1;verticalAlign=middle;whiteSpace=wrap;rounded=0;fontSize=16;" vertex="1" parent="m7DbLy0PeTwWnauxjm_9-30">
          <mxGeometry x="-8.676111111111027" y="54.170000000000016" width="100" height="43.33" as="geometry" />
        </mxCell>
        <mxCell id="m7DbLy0PeTwWnauxjm_9-33" value="" style="group" parent="m7DbLy0PeTwWnauxjm_9-40" vertex="1" connectable="0">
          <mxGeometry x="552.0277777777777" y="151.66666666666666" width="100" height="151.66666666666666" as="geometry" />
        </mxCell>
        <mxCell id="m7DbLy0PeTwWnauxjm_9-34" value="" style="rounded=0;whiteSpace=wrap;html=1;" parent="m7DbLy0PeTwWnauxjm_9-33" vertex="1">
          <mxGeometry y="18.958333333333332" width="82.63888888888889" height="113.75" as="geometry" />
        </mxCell>
        <mxCell id="m7DbLy0PeTwWnauxjm_9-35" value="" style="sketch=0;pointerEvents=1;shadow=0;dashed=0;html=1;strokeColor=none;fillColor=#505050;labelPosition=center;verticalLabelPosition=bottom;verticalAlign=top;outlineConnect=0;align=center;shape=mxgraph.office.devices.cell_phone_android_standalone;" parent="m7DbLy0PeTwWnauxjm_9-33" vertex="1">
          <mxGeometry width="82.63888888888889" height="151.66666666666666" as="geometry" />
        </mxCell>
        <mxCell id="Dw3PRpNdUOcZ9dQEBOBM-38" value="Bob" style="text;strokeColor=none;align=center;fillColor=none;html=1;verticalAlign=middle;whiteSpace=wrap;rounded=0;fontSize=16;" vertex="1" parent="m7DbLy0PeTwWnauxjm_9-33">
          <mxGeometry x="-10" y="54.17" width="100" height="43.33" as="geometry" />
        </mxCell>
        <mxCell id="m7DbLy0PeTwWnauxjm_9-38" value="" style="group" parent="m7DbLy0PeTwWnauxjm_9-40" vertex="1" connectable="0">
          <mxGeometry x="552.0277777777777" y="606.6666666666666" width="82.63888888888889" height="151.66666666666666" as="geometry" />
        </mxCell>
        <mxCell id="m7DbLy0PeTwWnauxjm_9-36" value="" style="rounded=0;whiteSpace=wrap;html=1;" parent="m7DbLy0PeTwWnauxjm_9-38" vertex="1">
          <mxGeometry y="10.833333333333332" width="82.63888888888889" height="130" as="geometry" />
        </mxCell>
        <mxCell id="m7DbLy0PeTwWnauxjm_9-37" value="" style="verticalLabelPosition=bottom;verticalAlign=top;html=1;shadow=0;dashed=0;strokeWidth=1;shape=mxgraph.android.phone2;strokeColor=#c0c0c0;" parent="m7DbLy0PeTwWnauxjm_9-38" vertex="1">
          <mxGeometry width="82.63888888888889" height="151.66666666666666" as="geometry" />
        </mxCell>
        <mxCell id="Dw3PRpNdUOcZ9dQEBOBM-1" value="AB Repository" style="text;strokeColor=none;align=center;fillColor=none;html=1;verticalAlign=middle;whiteSpace=wrap;rounded=0;fontSize=16;" vertex="1" parent="m7DbLy0PeTwWnauxjm_9-40">
          <mxGeometry x="420" y="290" width="80.36" height="43.33" as="geometry" />
        </mxCell>
        <mxCell id="Dw3PRpNdUOcZ9dQEBOBM-2" value="BC Repository" style="text;strokeColor=none;align=center;fillColor=none;html=1;verticalAlign=middle;whiteSpace=wrap;rounded=0;fontSize=16;" vertex="1" parent="m7DbLy0PeTwWnauxjm_9-40">
          <mxGeometry x="690" y="290" width="80.36" height="43.33" as="geometry" />
        </mxCell>
        <mxCell id="Dw3PRpNdUOcZ9dQEBOBM-3" value="AC Repository" style="text;strokeColor=none;align=center;fillColor=none;html=1;verticalAlign=middle;whiteSpace=wrap;rounded=0;fontSize=16;" vertex="1" parent="m7DbLy0PeTwWnauxjm_9-40">
          <mxGeometry x="554.8199999999999" y="407" width="80.36" height="43.33" as="geometry" />
        </mxCell>
      </root>
    </mxGraphModel>
  </diagram>
</mxfile>
